<svg xmlns="http://www.w3.org/2000/svg" viewBox="0 0 100 120">
        <!-- Hat -->
        <path d="M 30 40 C 10 40 10 10 30 20 C 40 0 60 0 70 20 C 90 10 90 40 70 40 Z" fill="#FFFFFF" stroke="#E2E8F0" stroke-width="2" />
        <rect x="35" y="35" width="30" height="20" rx="4" fill="#FFFFFF" stroke="#E2E8F0" stroke-width="2" />
        <!-- Head -->
        <circle cx="50" cy="75" r="30" fill="#FDBA74" />
        <circle cx="50" cy="75" r="22" fill="#FFEDD5" />
        <!-- Ears -->
        <circle cx="25" cy="55" r="10" fill="#FDBA74" />
        <circle cx="25" cy="55" r="6" fill="#FCA5A5" />
        <circle cx="75" cy="55" r="10" fill="#FDBA74" />
        <circle cx="75" cy="55" r="6" fill="#FCA5A5" />
        <!-- Eyes -->
        <circle cx="40" cy="70" r="4" fill="#1E293B" />
        <circle cx="60" cy="70" r="4" fill="#1E293B" />
        <circle cx="42" cy="68" r="1.5" fill="#FFFFFF" />
        <circle cx="62" cy="68" r="1.5" fill="#FFFFFF" />
        <!-- Nose -->
        <path d="M 48 80 L 52 80 L 50 83 Z" fill="#FCA5A5" />
        <!-- Body/Shirt -->
        <path d="M 30 120 C 30 100 40 95 50 95 C 60 95 70 100 70 120 Z" fill="#FFFFFF" stroke="#E2E8F0" stroke-width="2" />
        <path d="M 50 95 L 45 120 M 50 95 L 55 120" stroke="#E2E8F0" stroke-width="2" />
    </svg>