<svg xmlns="http://www.w3.org/2000/svg" viewBox="0 0 280 280" role="img" aria-labelledby="title desc">
  <title id="title">Хомяк-повар</title>
  <desc id="desc">Радостный хомяк в колпаке и зелёном фартуке машет лапкой.</desc>
  <defs>
    <radialGradient id="hgFur" cx="46%" cy="34%" r="68%">
      <stop offset="0" stop-color="#ffe6b4"/>
      <stop offset=".44" stop-color="#efb56c"/>
      <stop offset="1" stop-color="#a55e2f"/>
    </radialGradient>
    <linearGradient id="hgHat" x1="0" x2="1">
      <stop offset="0" stop-color="#fffef8"/>
      <stop offset=".7" stop-color="#f2e1bd"/>
      <stop offset="1" stop-color="#d9bb87"/>
    </linearGradient>
    <linearGradient id="hgApron" x1="0" x2="0" y1="0" y2="1">
      <stop offset="0" stop-color="#4f9b53"/>
      <stop offset="1" stop-color="#295f32"/>
    </linearGradient>
  </defs>
  <ellipse cx="148" cy="250" rx="95" ry="18" fill="#6d3e1e" opacity=".16"/>
  <g transform="translate(10 0)">
    <path d="M39 203c11-31 36-45 60-44 24 1 46 12 62 30 8 9 13 22 15 38H34c-1-8 0-16 5-24Z" fill="url(#hgApron)"/>
    <path d="M88 165c22 20 68 20 90 0v27c0 25-18 41-44 41s-46-16-46-41v-27Z" fill="#f5ecd5"/>
    <circle cx="86" cy="102" r="31" fill="#bd7543"/>
    <circle cx="191" cy="101" r="31" fill="#bd7543"/>
    <circle cx="86" cy="102" r="17" fill="#f2bb7a"/>
    <circle cx="191" cy="101" r="17" fill="#f2bb7a"/>
    <path d="M79 86c-5-28 13-49 39-40 8-29 46-29 54 0 24-8 43 14 35 40H79Z" fill="url(#hgHat)" stroke="#8e5c30" stroke-width="5" stroke-linejoin="round"/>
    <rect x="92" y="73" width="92" height="31" rx="15" fill="#fffaf0" stroke="#8e5c30" stroke-width="5"/>
    <ellipse cx="139" cy="131" rx="83" ry="76" fill="url(#hgFur)"/>
    <ellipse cx="139" cy="150" rx="56" ry="49" fill="#ffe9bf"/>
    <ellipse cx="114" cy="126" rx="13" ry="16" fill="#241710"/>
    <ellipse cx="165" cy="126" rx="13" ry="16" fill="#241710"/>
    <circle cx="118" cy="121" r="4" fill="#fff"/>
    <circle cx="169" cy="121" r="4" fill="#fff"/>
    <path d="M132 144c5-7 11-7 16 0-1 10-15 10-16 0Z" fill="#8b4332"/>
    <path d="M104 160c14 17 55 17 70 0" fill="none" stroke="#714223" stroke-width="6" stroke-linecap="round"/>
    <path d="M74 160c-23 4-38 19-42 39" fill="none" stroke="#835028" stroke-width="8" stroke-linecap="round"/>
    <path d="M204 162c24 4 37 17 40 38" fill="none" stroke="#835028" stroke-width="8" stroke-linecap="round"/>
    <g transform="translate(184 134) rotate(-8)">
      <path d="M10 44c16 0 29-14 29-29S26-14 10-14-19-1-19 15-6 44 10 44Z" fill="#f6bd82"/>
      <path d="M-1 4c17 6 29 20 33 37" fill="none" stroke="#8c572e" stroke-width="7" stroke-linecap="round"/>
      <path d="M10 15c12-2 24 3 31 13" fill="none" stroke="#8c572e" stroke-width="7" stroke-linecap="round"/>
      <circle cx="34" cy="8" r="12" fill="#f7d6af"/>
    </g>
    <g transform="translate(64 176)">
      <rect x="9" y="10" width="112" height="63" rx="22" fill="url(#hgApron)" stroke="#204d28" stroke-width="5"/>
      <path d="M65 10V76" stroke="#f7e6bd" stroke-width="6" opacity=".65"/>
      <path d="M34 10v63M95 10v63" stroke="#2d6d38" stroke-width="3" opacity=".34"/>
      <path d="M48 8c5-14 28-14 33 0" fill="none" stroke="#f7e6bd" stroke-width="5" stroke-linecap="round"/>
    </g>
  </g>
</svg>
