<svg xmlns="http://www.w3.org/2000/svg" viewBox="0 0 220 220" role="img" aria-labelledby="title desc">
  <title id="title">Хомяк-повар</title>
  <desc id="desc">Милый хомяк в поварском колпаке для игры Kyrgyz Organics.</desc>
  <defs>
    <radialGradient id="fur" cx="45%" cy="36%" r="62%">
      <stop offset="0" stop-color="#ffd99a"/>
      <stop offset="0.6" stop-color="#d8934c"/>
      <stop offset="1" stop-color="#9c5b2d"/>
    </radialGradient>
    <linearGradient id="hat" x1="0" x2="1">
      <stop offset="0" stop-color="#fffaf0"/>
      <stop offset="1" stop-color="#f2e2bf"/>
    </linearGradient>
  </defs>
  <ellipse cx="110" cy="119" rx="72" ry="67" fill="url(#fur)"/>
  <circle cx="59" cy="85" r="25" fill="#b46c39"/>
  <circle cx="161" cy="85" r="25" fill="#b46c39"/>
  <circle cx="59" cy="85" r="14" fill="#f1b978"/>
  <circle cx="161" cy="85" r="14" fill="#f1b978"/>
  <path d="M65 67c-3-22 11-38 32-30 7-24 39-24 46 0 20-7 34 8 31 30H65Z" fill="url(#hat)" stroke="#7a4b26" stroke-width="5" stroke-linejoin="round"/>
  <rect x="77" y="56" width="66" height="27" rx="13" fill="#fff8e8" stroke="#7a4b26" stroke-width="5"/>
  <ellipse cx="110" cy="127" rx="48" ry="43" fill="#ffe0aa"/>
  <circle cx="88" cy="108" r="8" fill="#3b2414"/>
  <circle cx="132" cy="108" r="8" fill="#3b2414"/>
  <circle cx="91" cy="105" r="3" fill="#fff"/>
  <circle cx="135" cy="105" r="3" fill="#fff"/>
  <path d="M105 124c4-5 10-5 14 0-2 8-12 8-14 0Z" fill="#8a3f32"/>
  <path d="M78 135c14 12 50 12 64 0" fill="none" stroke="#78411f" stroke-width="5" stroke-linecap="round"/>
  <path d="M63 128c-22 3-34 14-35 29" fill="none" stroke="#7a4b26" stroke-width="6" stroke-linecap="round"/>
  <path d="M157 128c22 3 34 14 35 29" fill="none" stroke="#7a4b26" stroke-width="6" stroke-linecap="round"/>
  <path d="M74 180c16 12 56 17 82 0" fill="none" stroke="#6f3c1c" stroke-width="9" stroke-linecap="round"/>
  <path d="M40 169c14 26 123 32 142 0" fill="#fff3d1" opacity=".55"/>
</svg>
