<svg xmlns="http://www.w3.org/2000/svg" viewBox="0 0 420 420" role="img" aria-labelledby="title desc">
  <title id="title">Декоративный слот-автомат</title>
  <desc id="desc">Каркас деревянного слот-автомата с лампочками и рычагом.</desc>
  <defs>
    <linearGradient id="smWood" x1="0" x2="1" y1="0" y2="1">
      <stop offset="0" stop-color="#8a522f"/>
      <stop offset=".55" stop-color="#5b321d"/>
      <stop offset="1" stop-color="#341b10"/>
    </linearGradient>
    <linearGradient id="smGold" x1="0" x2="1">
      <stop offset="0" stop-color="#fff0ad"/>
      <stop offset="1" stop-color="#db982f"/>
    </linearGradient>
  </defs>
  <rect x="24" y="30" width="324" height="340" rx="44" fill="url(#smWood)" stroke="#2a170e" stroke-width="14"/>
  <rect x="52" y="68" width="268" height="176" rx="30" fill="#fff4d9" stroke="url(#smGold)" stroke-width="12"/>
  <rect x="73" y="264" width="226" height="60" rx="28" fill="#673a20" stroke="url(#smGold)" stroke-width="10"/>
  <g fill="#ffd976">
    <circle cx="58" cy="246" r="8"/><circle cx="102" cy="246" r="8"/><circle cx="146" cy="246" r="8"/>
    <circle cx="190" cy="246" r="8"/><circle cx="234" cy="246" r="8"/><circle cx="278" cy="246" r="8"/>
    <circle cx="322" cy="246" r="8"/>
  </g>
  <path d="M352 116c36 4 43 61 6 72" fill="none" stroke="#9a5c2e" stroke-width="18" stroke-linecap="round"/>
  <circle cx="368" cy="102" r="22" fill="#f2c24d" stroke="#7b461f" stroke-width="8"/>
  <path d="M75 46c79 26 187 24 240 0" stroke="#bc7b45" stroke-width="9" opacity=".4"/>
  <path d="M84 350c48 26 163 28 206 0" stroke="#2c180f" stroke-width="13" stroke-linecap="round"/>
</svg>
