<svg xmlns="http://www.w3.org/2000/svg" viewBox="0 0 200 200">
        <rect x="20" y="30" width="8" height="16" fill="#EF4444" transform="rotate(45 24 38)" />
        <rect x="80" y="20" width="8" height="16" fill="#3B82F6" transform="rotate(-30 84 28)" />
        <rect x="150" y="50" width="8" height="16" fill="#10B981" transform="rotate(15 154 58)" />
        <rect x="40" y="120" width="8" height="16" fill="#F59E0B" transform="rotate(60 44 128)" />
        <rect x="160" y="140" width="8" height="16" fill="#8B5CF6" transform="rotate(-45 164 148)" />
        <rect x="100" y="160" width="8" height="16" fill="#EC4899" transform="rotate(12 104 168)" />
        <circle cx="60" cy="80" r="5" fill="#3B82F6" />
        <circle cx="120" cy="100" r="6" fill="#F59E0B" />
        <circle cx="140" cy="30" r="4" fill="#EF4444" />
        <path d="M 30 150 Q 40 140 50 160" fill="none" stroke="#10B981" stroke-width="4" stroke-linecap="round" />
        <path d="M 170 80 Q 180 90 190 70" fill="none" stroke="#8B5CF6" stroke-width="4" stroke-linecap="round" />
    </svg>